<svg width="164" height="161" viewBox="0 0 164 161" fill="none" xmlns="http://www.w3.org/2000/svg">
<path d="M62.4137 144.249L61.5565 156.002L59.0693 154.983L59.8852 144.596L61.1288 145.106L54.2874 153.023L52.0666 152.113L52.8677 141.72L54.0669 142.212L47.2847 150.153L44.99 149.212L52.6277 140.238L55.2037 141.294L54.5233 150.422L53.8423 150.143L59.8376 143.193L62.4137 144.249Z" fill="white"/>
<path d="M40.8804 132.21C41.6389 132.833 42.1849 133.53 42.5184 134.3C42.8436 135.064 42.9531 135.83 42.8467 136.598C42.7337 137.375 42.4064 138.093 41.8649 138.753C41.3167 139.42 40.6803 139.885 39.9556 140.145C39.216 140.408 38.4597 140.463 37.687 140.312C36.9074 140.169 36.1796 139.819 35.5036 139.265C34.8523 138.73 34.382 138.109 34.0927 137.402C33.7884 136.697 33.6969 135.96 33.8182 135.19C33.9328 134.428 34.2845 133.689 34.8733 132.972C34.9342 132.897 35.0094 132.814 35.0988 132.722C35.1815 132.638 35.2608 132.558 35.3368 132.483L40.7411 136.919L39.8172 138.044L35.427 134.441L36.4431 134.716C36.1589 135.062 35.9819 135.42 35.9123 135.791C35.8426 136.162 35.8739 136.519 36.0062 136.862C36.1317 137.213 36.3594 137.524 36.6892 137.795C37.0189 138.066 37.3725 138.232 37.7499 138.293C38.1123 138.356 38.4719 138.313 38.8286 138.164C39.1786 138.024 39.4991 137.776 39.7901 137.422L40.0337 137.125C40.3315 136.762 40.5172 136.376 40.5906 135.968C40.6491 135.56 40.5949 135.164 40.4282 134.779C40.2465 134.395 39.9577 134.04 39.562 133.716C39.2075 133.424 38.8543 133.224 38.5025 133.115C38.1424 132.999 37.7631 132.956 37.3646 132.988L37.2518 131.032C37.8411 130.937 38.4444 130.983 39.0618 131.173C39.6724 131.37 40.2786 131.716 40.8804 132.21Z" fill="white"/>
<path d="M32.6844 124.406L23.5243 131.959L21.9365 130.033L31.0966 122.481L32.6844 124.406Z" fill="white"/>
<path d="M24.9888 113.011C25.4361 113.824 25.6711 114.639 25.6936 115.454C25.7068 116.275 25.5193 117.029 25.1311 117.718C24.7377 118.397 24.1672 118.942 23.4195 119.353C22.6625 119.77 21.8966 119.96 21.1218 119.923C20.3325 119.883 19.5995 119.635 18.9228 119.179C18.2367 118.729 17.67 118.097 17.2226 117.284C16.7856 116.49 16.5733 115.706 16.5858 114.932C16.5889 114.163 16.8218 113.469 17.2843 112.849L19.1288 114.044C18.8816 114.436 18.7562 114.827 18.7525 115.219C18.7437 115.601 18.8344 115.965 19.0247 116.311C19.2304 116.685 19.4996 116.975 19.8323 117.181C20.1651 117.388 20.5345 117.495 20.9406 117.503C21.3416 117.502 21.7617 117.38 22.2009 117.138C22.6402 116.897 22.9677 116.607 23.1835 116.269C23.3943 115.922 23.5014 115.552 23.5051 115.161C23.5088 114.769 23.4078 114.386 23.2021 114.013C23.0119 113.667 22.7576 113.393 22.4393 113.19C22.1066 112.984 21.704 112.883 21.2315 112.887L21.2235 110.682C21.9852 110.628 22.6962 110.803 23.3566 111.207C24.0077 111.615 24.5517 112.217 24.9888 113.011Z" fill="white"/>
<path d="M19.5501 99.6624C19.7964 100.546 19.8304 101.384 19.6523 102.175C19.4714 102.956 19.1182 103.636 18.5928 104.214C18.0543 104.785 17.374 105.185 16.552 105.414C15.7197 105.646 14.9306 105.656 14.1847 105.443C13.4257 105.222 12.7719 104.823 12.2233 104.245C11.6616 103.66 11.2576 102.925 11.0114 102.042C10.768 101.168 10.7354 100.336 10.9135 99.5443C11.0813 98.7556 11.4293 98.0773 11.9576 97.5093C12.4859 96.9414 13.1713 96.54 14.0139 96.3052C14.8359 96.0762 15.625 96.0667 16.3811 96.2768C17.127 96.4897 17.7808 96.8889 18.3425 97.4743C18.9042 98.0596 19.3068 98.789 19.5501 99.6624ZM17.5773 100.212C17.4656 99.8114 17.2729 99.4775 16.9992 99.2105C16.7255 98.9435 16.3934 98.7648 16.0027 98.6743C15.6019 98.5867 15.1651 98.6088 14.6924 98.7405C14.2095 98.875 13.8242 99.082 13.5367 99.3615C13.2491 99.6409 13.0573 99.9656 12.9611 100.336C12.8649 100.706 12.8726 101.091 12.9843 101.492C13.0959 101.893 13.2886 102.227 13.5623 102.494C13.836 102.761 14.1696 102.944 14.5631 103.045C14.9537 103.136 15.3905 103.114 15.8734 102.979C16.3461 102.847 16.7313 102.64 17.0292 102.358C17.3138 102.068 17.5043 101.738 17.6005 101.368C17.6967 100.998 17.689 100.613 17.5773 100.212Z" fill="white"/>
<path d="M8.28514 77.4595C8.29314 76.7769 8.43886 76.1759 8.7223 75.6565C8.9952 75.1263 9.41605 74.7152 9.98485 74.4232C10.5431 74.1204 11.2595 73.9741 12.1341 73.9844L17.0618 74.0422L17.0325 76.538L12.4889 76.4847C11.7956 76.4766 11.2819 76.6146 10.9479 76.8987C10.6139 77.1828 10.4438 77.5861 10.4377 78.1088C10.4334 78.4714 10.5149 78.7977 10.6822 79.0877C10.8388 79.3776 11.0815 79.6044 11.4103 79.7683C11.7391 79.9322 12.1594 80.0171 12.6714 80.0231L16.9911 80.0737L16.9618 82.5696L12.4181 82.5163C11.7249 82.5082 11.2112 82.6462 10.8772 82.9303C10.5433 83.2037 10.3733 83.6017 10.3671 84.1244C10.3629 84.487 10.4444 84.8133 10.6117 85.1033C10.7683 85.3932 11.011 85.62 11.3398 85.7839C11.6685 85.9477 12.0889 86.0327 12.6009 86.0387L16.9206 86.0893L16.8913 88.5852L8.28389 88.4842L8.31184 86.1004L10.6637 86.128L9.97047 86.5679C9.38735 86.2624 8.94965 85.8359 8.65738 85.2884C8.35457 84.7301 8.20729 84.099 8.21555 83.3951C8.2248 82.6058 8.43552 81.9202 8.8477 81.3384C9.24934 80.7457 9.86193 80.3582 10.6855 80.1758L10.4352 81.0529C9.76658 80.7571 9.23866 80.2922 8.8514 79.6583C8.46426 79.0137 8.27551 78.2808 8.28514 77.4595Z" fill="white"/>
<path d="M19.886 63.1921C19.6005 64.131 19.1654 64.9018 18.5808 65.5044C17.9993 66.0969 17.3332 66.4908 16.5826 66.6862C15.8217 66.8785 15.0331 66.8505 14.2167 66.6023C13.39 66.3509 12.7178 65.9402 12.1999 65.3702C11.6748 64.7869 11.3346 64.1093 11.1791 63.3374C11.0134 62.5623 11.0578 61.7563 11.3123 60.9195C11.5574 60.1133 11.9513 59.4415 12.4937 58.904C13.0291 58.3533 13.6757 57.9869 14.4334 57.8048C15.181 57.6196 15.9987 57.662 16.8865 57.932C16.9784 57.9599 17.084 57.9976 17.2034 58.045C17.3125 58.0894 17.4166 58.1322 17.5155 58.1734L15.4814 64.863L14.0884 64.4394L15.7408 59.0051L15.8748 60.0492C15.4462 59.9189 15.0473 59.8924 14.6782 59.9697C14.3091 60.0469 13.9912 60.2123 13.7247 60.4657C13.4479 60.716 13.2474 61.0453 13.1233 61.4535C12.9992 61.8617 12.9808 62.2519 13.0683 62.6241C13.1487 62.983 13.3258 63.2989 13.5996 63.5717C13.8633 63.8414 14.2145 64.0429 14.6533 64.1764L15.0207 64.2881C15.4697 64.4246 15.8972 64.4487 16.3032 64.3603C16.702 64.2586 17.0476 64.0571 17.3399 63.7558C17.6251 63.4411 17.8422 63.0389 17.9911 62.549C18.1245 62.1102 18.1746 61.7073 18.1412 61.3404C18.1109 60.9633 18.005 60.5966 17.8235 60.2404L19.5876 59.3888C19.9014 59.8967 20.0887 60.4721 20.1497 61.115C20.2004 61.7547 20.1125 62.4471 19.886 63.1921Z" fill="white"/>
<path d="M31.1754 41.6253C30.5595 42.43 29.8765 42.9012 29.1263 43.039C28.3677 43.1702 27.5818 42.9247 26.7686 42.3023L20.7715 37.7124L22.2885 35.7303L28.2602 40.3008C28.5482 40.5212 28.831 40.6168 29.1086 40.5875C29.3778 40.5517 29.6129 40.4025 29.8138 40.1399C30.0537 39.8265 30.1732 39.4949 30.1724 39.145L31.9784 39.681C31.9668 39.9945 31.8889 40.3245 31.7447 40.6708C31.5986 41.0022 31.4088 41.3203 31.1754 41.6253ZM23.1535 41.2078L21.6288 40.0409L25.256 35.3016L26.7807 36.4686L23.1535 41.2078Z" fill="white"/>
<path d="M39.5708 32.8908C38.8744 33.4878 38.1299 33.8731 37.3374 34.0467C36.5529 34.2134 35.7876 34.181 35.0414 33.9496C34.2963 33.7032 33.646 33.2561 33.0907 32.6082C32.5284 31.9523 32.1859 31.2413 32.0632 30.4754C31.9417 29.6945 32.0267 28.9332 32.3182 28.1916C32.6109 27.4349 33.1055 26.758 33.8019 26.161C34.4903 25.5709 35.2307 25.1891 36.0232 25.0155C36.8088 24.8339 37.5707 24.8622 38.3088 25.1005C39.047 25.3388 39.7007 25.79 40.2699 26.454C40.8253 27.1019 41.1678 27.8128 41.2974 28.5868C41.4201 29.3528 41.3351 30.114 41.0424 30.8707C40.7497 31.6274 40.2592 32.3007 39.5708 32.8908ZM38.2379 31.3359C38.5538 31.0652 38.7747 30.7493 38.9008 30.3883C39.0269 30.0274 39.0483 29.6508 38.965 29.2586C38.8747 28.8583 38.6699 28.4718 38.3506 28.0993C38.0243 27.7187 37.6738 27.4572 37.2989 27.3149C36.924 27.1726 36.5486 27.1362 36.1726 27.2057C35.7966 27.2751 35.4506 27.4452 35.1348 27.7159C34.819 27.9867 34.598 28.3025 34.4719 28.6635C34.3458 29.0245 34.3204 29.4045 34.3956 29.8037C34.4789 30.1959 34.6837 30.5823 35.01 30.9629C35.3293 31.3355 35.6799 31.5969 36.0617 31.7473C36.4447 31.8827 36.8242 31.9156 37.2002 31.8462C37.5762 31.7768 37.9221 31.6067 38.2379 31.3359Z" fill="white"/>
<path d="M57.8736 15.0026L62.9753 13.3076L63.6312 15.2815L58.5294 16.9765L57.8736 15.0026ZM59.998 20.7879L57.5382 21.6051L54.0069 10.9764L62.0392 8.30777L62.695 10.2817L57.1225 12.1331L59.998 20.7879Z" fill="white"/>
<path d="M75.9179 17.376C74.9109 17.4891 74.098 17.3229 73.479 16.8772C72.8588 16.4209 72.4916 15.684 72.3772 14.6664L71.534 7.16162L74.0144 6.88291L74.854 14.3559C74.8945 14.7163 75.0215 14.9865 75.2349 15.1664C75.4472 15.3358 75.7176 15.402 76.0462 15.3651C76.4384 15.321 76.7604 15.1775 77.0122 14.9345L77.8765 16.6085C77.6423 16.8173 77.3504 16.9896 77.0007 17.1255C76.6605 17.2496 76.2995 17.3331 75.9179 17.376ZM70.6627 11.3008L70.4483 9.3928L76.379 8.7264L76.5934 10.6344L70.6627 11.3008Z" fill="white"/>
<path d="M82.7501 18.2917L82.8574 16.8557L90.8352 17.4519L90.7279 18.8879L82.7501 18.2917Z" fill="white"/>
<path d="M99.8848 19.603C98.9058 19.3414 98.2093 18.8903 97.7953 18.2497C97.3841 17.5989 97.3106 16.7788 97.5749 15.7895L99.5244 8.49341L101.936 9.13771L99.9946 16.4029C99.901 16.7532 99.9208 17.0511 100.054 17.2965C100.19 17.5315 100.418 17.6917 100.737 17.7771C101.118 17.8789 101.47 17.8626 101.793 17.7281L101.988 19.6019C101.694 19.711 101.36 19.7652 100.984 19.7643C100.622 19.7559 100.256 19.7021 99.8848 19.603ZM97.2047 12.0305L97.7003 10.1756L103.466 11.7161L102.97 13.571L97.2047 12.0305Z" fill="white"/>
<path d="M107.58 22.1697L111.248 14.382L113.405 15.3977L112.369 17.598L112.365 16.8179C112.855 16.3769 113.422 16.1369 114.065 16.0979C114.713 16.0493 115.404 16.1976 116.137 16.543L115.156 18.6275C115.064 18.5724 114.979 18.5266 114.902 18.4903C114.829 18.4443 114.749 18.4008 114.663 18.3599C114.045 18.0691 113.459 18.0113 112.905 18.1866C112.365 18.3567 111.92 18.8133 111.57 19.5564L109.839 23.2331L107.58 22.1697Z" fill="white"/>
<path d="M122.061 30.7586L123.066 29.4126L123.158 29.022L124.958 26.6121C125.278 26.1848 125.394 25.7526 125.308 25.3154C125.23 24.8846 124.922 24.4682 124.384 24.066C124.016 23.7915 123.608 23.5801 123.16 23.4316C122.727 23.281 122.313 23.2114 121.918 23.2229L122.244 21.2894C122.818 21.3054 123.424 21.4386 124.062 21.6891C124.701 21.9395 125.293 22.269 125.84 22.6776C126.891 23.4627 127.522 24.3201 127.733 25.2498C127.944 26.1796 127.657 27.17 126.872 28.2211L123.933 32.1565L122.061 30.7586ZM119.882 29.2909C119.344 28.8888 118.949 28.4543 118.699 27.9876C118.455 27.5124 118.348 27.04 118.379 26.5707C118.41 26.1013 118.573 25.67 118.866 25.2769C119.173 24.8667 119.539 24.5812 119.965 24.4203C120.4 24.2659 120.899 24.266 121.463 24.4206C122.033 24.5667 122.668 24.9014 123.369 25.4248L125.202 26.794L124.331 27.9605L122.716 26.7541C122.246 26.403 121.863 26.2374 121.569 26.2572C121.283 26.2833 121.054 26.4118 120.882 26.6425C120.69 26.8989 120.635 27.1774 120.717 27.4781C120.814 27.7765 121.037 28.0566 121.387 28.3183C121.721 28.5673 122.077 28.7138 122.457 28.7578C122.843 28.7933 123.211 28.7019 123.561 28.4837L123.179 29.6364C122.702 29.9723 122.185 30.112 121.628 30.0555C121.071 29.999 120.489 29.7441 119.882 29.2909Z" fill="white"/>
<path d="M139.108 35.3116C139.543 35.8379 139.823 36.3949 139.949 36.9827C140.09 37.5719 140.041 38.1658 139.802 38.7644C139.572 39.3561 139.119 39.9306 138.445 40.4877L134.646 43.6267L133.056 41.7025L136.559 38.8081C137.094 38.3665 137.39 37.9212 137.448 37.4721C137.512 37.0312 137.368 36.597 137.015 36.1694C136.763 35.8651 136.47 35.644 136.135 35.5061C135.814 35.3695 135.465 35.3401 135.086 35.4177C134.714 35.5035 134.323 35.7163 133.912 36.056L130.631 38.767L129.041 36.8428L135.677 31.3598L137.195 33.1976L135.357 34.7161L135.627 33.9122C136.268 33.7837 136.891 33.843 137.497 34.09C138.102 34.337 138.639 34.7442 139.108 35.3116Z" fill="white"/>
<path d="M140.522 53.9441C140.117 53.1092 139.924 52.284 139.943 51.4685C139.972 50.6483 140.198 49.9043 140.621 49.2367C141.048 48.5786 141.646 48.0633 142.414 47.6907C143.191 47.3134 143.966 47.1628 144.737 47.2387C145.524 47.3195 146.243 47.6047 146.896 48.0942C147.558 48.5791 148.091 49.239 148.497 50.0739C148.893 50.8895 149.064 51.6835 149.012 52.4557C148.97 53.2233 148.702 53.9047 148.208 54.5L146.427 53.2123C146.694 52.8338 146.839 52.4491 146.863 52.0582C146.891 51.6769 146.819 51.3087 146.647 50.9537C146.461 50.5698 146.207 50.2663 145.885 50.043C145.563 49.8198 145.2 49.6938 144.795 49.6652C144.394 49.6462 143.968 49.7461 143.517 49.965C143.066 50.1839 142.724 50.4565 142.492 50.783C142.263 51.119 142.137 51.4825 142.114 51.8734C142.09 52.2643 142.171 52.6517 142.358 53.0355C142.53 53.3906 142.77 53.6772 143.077 53.8956C143.399 54.1188 143.796 54.2404 144.268 54.2602L144.163 56.463C143.4 56.4779 142.699 56.2668 142.06 55.83C141.431 55.3884 140.918 54.7598 140.522 53.9441Z" fill="white"/>
<path d="M145.31 67.7253C145.095 66.7677 145.093 65.8827 145.305 65.0701C145.518 64.2679 145.903 63.5967 146.46 63.0565C147.027 62.5139 147.727 62.1493 148.56 61.9626C149.403 61.7735 150.19 61.7992 150.922 62.0396C151.666 62.288 152.296 62.7097 152.812 63.3045C153.339 63.8971 153.698 64.62 153.889 65.4735C154.073 66.2958 154.062 67.0744 153.855 67.8095C153.661 68.5526 153.279 69.1903 152.71 69.7224C152.151 70.2522 151.419 70.6187 150.513 70.8217C150.42 70.8427 150.309 70.862 150.182 70.8796C150.065 70.8949 149.954 70.909 149.847 70.9219L148.317 64.0994L149.738 63.7808L150.981 69.3231L150.349 68.4809C150.786 68.3829 151.146 68.2092 151.429 67.9599C151.712 67.7107 151.907 67.41 152.014 67.0581C152.132 66.7039 152.144 66.3186 152.05 65.9022C151.957 65.4859 151.78 65.1374 151.521 64.8568C151.274 64.5842 150.964 64.3968 150.591 64.2946C150.229 64.19 149.824 64.1879 149.376 64.2882L149.002 64.3722C148.544 64.4749 148.16 64.6648 147.85 64.942C147.553 65.2271 147.352 65.5729 147.247 65.9792C147.154 66.3936 147.163 66.8505 147.275 67.3501C147.376 67.7977 147.531 68.1728 147.741 68.4755C147.953 68.7887 148.226 69.0554 148.56 69.2757L147.445 70.8866C146.922 70.5996 146.475 70.1914 146.105 69.6623C145.745 69.1307 145.48 68.4851 145.31 67.7253Z" fill="white"/>
<path d="M155.729 84.2701C155.712 84.9526 155.557 85.5568 155.267 86.0829C154.986 86.6199 154.559 87.0358 153.986 87.3306C153.424 87.6256 152.705 87.762 151.831 87.7396L146.905 87.6136L146.969 85.1184L151.511 85.2346C152.204 85.2523 152.72 85.1108 153.058 84.81C153.397 84.5199 153.573 84.0976 153.587 83.5431C153.597 83.1486 153.521 82.7892 153.358 82.4649C153.206 82.1516 152.962 81.8999 152.626 81.7099C152.289 81.5306 151.854 81.4341 151.321 81.4205L147.066 81.3116L147.13 78.8165L155.735 79.0366L155.674 81.4198L153.291 81.3588L154.022 80.9294C154.59 81.2534 155.021 81.7072 155.316 82.2909C155.61 82.8746 155.748 83.5344 155.729 84.2701Z" fill="white"/>
<path d="M144.703 98.7782C144.927 97.9989 145.302 97.3465 145.83 96.821C146.369 96.2984 147.008 95.9437 147.75 95.7568C148.489 95.5802 149.289 95.6153 150.15 95.8622C151.021 96.1121 151.724 96.5076 152.256 97.0487C152.786 97.6001 153.136 98.2385 153.305 98.964C153.475 99.6894 153.447 100.442 153.224 101.221C153.024 101.918 152.695 102.484 152.238 102.919C151.78 103.354 151.198 103.625 150.49 103.733C149.782 103.841 148.941 103.755 147.967 103.476C147.003 103.199 146.243 102.832 145.687 102.372C145.141 101.916 144.789 101.383 144.631 100.771C144.471 100.171 144.495 99.5062 144.703 98.7782ZM146.553 99.7578C146.441 100.147 146.432 100.528 146.526 100.898C146.619 101.269 146.808 101.595 147.094 101.877C147.387 102.172 147.769 102.387 148.241 102.522C148.722 102.66 149.161 102.68 149.555 102.582C149.946 102.495 150.28 102.319 150.555 102.054C150.831 101.789 151.025 101.461 151.136 101.072C151.251 100.672 151.262 100.287 151.168 99.9159C151.075 99.5451 150.887 99.2138 150.604 98.922C150.319 98.6404 149.935 98.4305 149.453 98.2923C148.981 98.1571 148.545 98.1318 148.143 98.2164C147.749 98.3143 147.414 98.4956 147.138 98.7606C146.863 99.0255 146.668 99.3579 146.553 99.7578ZM144.086 101.397L145.777 101.882L148.225 102.634L150.715 103.181L155.529 104.561L154.841 106.961L143.429 103.689L144.086 101.397Z" fill="white"/>
<path d="M138.185 114.483C138.677 113.634 139.276 112.983 139.983 112.53C140.684 112.086 141.423 111.854 142.198 111.835C142.983 111.822 143.744 112.029 144.482 112.457C145.23 112.89 145.791 113.443 146.165 114.116C146.543 114.804 146.72 115.541 146.695 116.329C146.68 117.121 146.452 117.896 146.014 118.652C145.591 119.381 145.054 119.945 144.404 120.345C143.757 120.759 143.044 120.968 142.264 120.973C141.494 120.982 140.708 120.755 139.905 120.289C139.822 120.241 139.728 120.18 139.622 120.107C139.526 120.039 139.435 119.973 139.348 119.911L142.854 113.862L144.114 114.592L141.265 119.506L141.373 118.459C141.761 118.683 142.143 118.8 142.52 118.809C142.897 118.818 143.244 118.73 143.561 118.544C143.888 118.363 144.158 118.088 144.372 117.719C144.586 117.35 144.693 116.974 144.693 116.592C144.697 116.224 144.596 115.876 144.392 115.548C144.197 115.225 143.901 114.949 143.504 114.719L143.172 114.526C142.766 114.291 142.355 114.17 141.94 114.163C141.528 114.172 141.146 114.289 140.792 114.516C140.443 114.757 140.14 115.099 139.883 115.542C139.653 115.939 139.512 116.32 139.461 116.684C139.404 117.058 139.424 117.44 139.519 117.828L137.607 118.255C137.418 117.688 137.367 117.085 137.454 116.446C137.551 115.811 137.794 115.157 138.185 114.483Z" fill="white"/>
<path d="M134.608 133.706C134.132 134.195 133.609 134.534 133.038 134.723C132.468 134.927 131.872 134.943 131.251 134.771C130.638 134.606 130.018 134.218 129.391 133.609L125.858 130.172L127.599 128.383L130.856 131.552C131.353 132.035 131.828 132.281 132.28 132.29C132.726 132.306 133.142 132.116 133.528 131.718C133.804 131.435 133.992 131.12 134.092 130.771C134.193 130.438 134.185 130.087 134.066 129.719C133.941 129.359 133.687 128.993 133.304 128.621L130.254 125.654L131.994 123.864L138.164 129.866L136.502 131.575L134.793 129.913L135.622 130.094C135.819 130.717 135.828 131.343 135.648 131.972C135.468 132.6 135.121 133.178 134.608 133.706Z" fill="white"/>
<path d="M116.239 137.133C117.025 136.64 117.825 136.358 118.637 136.289C119.456 136.229 120.22 136.372 120.929 136.72C121.63 137.074 122.207 137.612 122.661 138.335C123.12 139.067 123.354 139.82 123.362 140.596C123.367 141.386 123.162 142.132 122.746 142.834C122.336 143.545 121.738 144.147 120.952 144.641C120.184 145.123 119.413 145.38 118.64 145.412C117.872 145.453 117.166 145.26 116.52 144.834L117.607 142.924C118.012 143.148 118.411 143.251 118.802 143.232C119.184 143.219 119.542 143.107 119.876 142.898C120.238 142.671 120.512 142.385 120.699 142.041C120.886 141.697 120.972 141.322 120.956 140.916C120.932 140.516 120.786 140.104 120.52 139.679C120.253 139.254 119.945 138.944 119.595 138.748C119.236 138.558 118.861 138.472 118.47 138.491C118.079 138.51 117.703 138.632 117.341 138.859C117.007 139.069 116.748 139.339 116.565 139.668C116.378 140.012 116.3 140.42 116.331 140.891L114.13 141.026C114.033 140.269 114.166 139.549 114.531 138.866C114.902 138.193 115.471 137.615 116.239 137.133Z" fill="white"/>
<path d="M103.059 143.387C103.987 143.07 104.867 142.972 105.698 143.094C106.518 143.22 107.227 143.53 107.825 144.024C108.426 144.529 108.864 145.185 109.14 145.993C109.419 146.811 109.479 147.596 109.32 148.349C109.153 149.116 108.803 149.789 108.267 150.366C107.735 150.954 107.056 151.389 106.228 151.672C105.43 151.944 104.655 152.018 103.902 151.892C103.142 151.779 102.467 151.469 101.876 150.961C101.289 150.463 100.845 149.774 100.545 148.896C100.514 148.805 100.483 148.698 100.452 148.573C100.424 148.459 100.398 148.349 100.373 148.245L106.989 145.984L107.46 147.362L102.085 149.198L102.854 148.479C102.999 148.903 103.211 149.242 103.489 149.496C103.768 149.751 104.088 149.912 104.449 149.98C104.814 150.058 105.198 150.028 105.602 149.89C106.006 149.752 106.333 149.539 106.584 149.25C106.828 148.975 106.981 148.647 107.042 148.265C107.107 147.894 107.065 147.491 106.917 147.057L106.792 146.694C106.641 146.25 106.41 145.889 106.101 145.611C105.785 145.347 105.42 145.184 105.005 145.123C104.583 145.076 104.129 145.135 103.645 145.301C103.211 145.449 102.855 145.644 102.577 145.886C102.288 146.131 102.053 146.431 101.87 146.787L100.148 145.853C100.376 145.302 100.733 144.813 101.219 144.388C101.709 143.973 102.322 143.639 103.059 143.387Z" fill="white"/>
<ellipse cx="82.5" cy="81.5" rx="31.5" ry="30.5" fill="url(#paint0_linear_5_35)"/>
<defs>
<linearGradient id="paint0_linear_5_35" x1="51" y1="81.5" x2="114" y2="81.5" gradientUnits="userSpaceOnUse">
<stop stop-color="#A1C4FD"/>
<stop offset="1" stop-color="#C2E9FB"/>
</linearGradient>
</defs>
</svg>
